<?xml version="1.0" encoding="UTF-8"?><svg xmlns="http://www.w3.org/2000/svg" viewBox="0 0 128 64"><defs><style>.cls-1,.cls-2{stroke-width:0px;}.cls-2{fill:#fff;}</style></defs><g id="Background"><rect class="cls-1" y="10" width="128" height="54"/></g><g id="Boxes"><rect class="cls-2" x="32" y="52" width="64" height="12"/><path class="cls-1" d="m64,2v6H2V2h62m1-1H1v8h64V1h0Z"/><path class="cls-1" d="m126,2v6h-46V2h46m1-1h-48v8h48V1h0Z"/><path class="cls-2" d="m83,22v6h-38v-6h38m1-1h-40v8h40v-8h0Z"/><path class="cls-2" d="m121,34v6H8v-6h113m1-1H7v8h115v-8h0Z"/><rect class="cls-2" x="6" y="33" width="95" height="8"/><path class="cls-1" d="m87,55v6h-46v-6h46m1-1h-48v8h48v-8h0Z"/></g></svg>