<?xml version="1.0" encoding="UTF-8"?><svg xmlns="http://www.w3.org/2000/svg" viewBox="0 0 128 64"><defs><style>.cls-1,.cls-2{stroke-width:0px;}.cls-2{fill:#fff;}</style></defs><g id="Background"><rect class="cls-1" y="10" width="128" height="54"/></g><g id="Boxes"><path class="cls-1" d="m64,2v6H2V2h62m1-1H1v8h64V1h0Z"/><path class="cls-1" d="m126,2v6h-38V2h38m1-1h-40v8h40V1h0Z"/><rect class="cls-2" x="64" y="52" width="64" height="12"/><path class="cls-2" d="m115,34v6H13v-6h102m1-1H12v8h104v-8h0Z"/><path class="cls-2" d="m119,25v6H9v-6h110m1-1H8v8h112v-8h0Z"/><path class="cls-2" d="m55,55v6H9v-6h46m1-1H8v8h48v-8h0Z"/><path class="cls-1" d="m103,55v6h-14v-6h14m1-1h-16v8h16v-8h0Z"/></g></svg>