<?xml version="1.0" encoding="UTF-8"?><svg xmlns="http://www.w3.org/2000/svg" viewBox="0 0 128 64"><defs><style>.cls-1,.cls-2{stroke-width:0px;}.cls-2{fill:#fff;}</style></defs><g id="Background"><rect class="cls-1" y="10" width="128" height="54"/></g><g id="Boxes"><path class="cls-1" d="m64,2v6H2V2h62m1-1H1v8h64V1h0Z"/><path class="cls-1" d="m126,2v6h-46V2h46m1-1h-48v8h48V1h0Z"/><rect class="cls-2" x="111" y="44" width="1" height="17"/><rect class="cls-2" x="112" y="45" width="2" height="1"/><rect class="cls-2" x="122" y="45" width="2" height="1"/><rect class="cls-2" x="124" y="44" width="1" height="17"/><rect class="cls-2" x="123" y="42" width="1" height="2"/><rect class="cls-2" x="112" y="42" width="1" height="2"/><rect class="cls-2" x="113" y="41" width="10" height="1"/><rect class="cls-2" x="112" y="53" width="12" height="8" transform="translate(236 114) rotate(180)"/><rect class="cls-2" x="120" y="44" width="2" height="1"/><rect class="cls-2" x="114" y="44" width="2" height="1"/><rect class="cls-2" x="116" y="45" width="4" height="1"/><rect class="cls-2" x="121" y="43" width="1" height="1"/><rect class="cls-2" x="122" y="42" width="1" height="1"/><rect class="cls-2" x="114" y="43" width="1" height="1" transform="translate(229 87) rotate(180)"/><rect class="cls-2" x="113" y="42" width="1" height="1" transform="translate(227 85) rotate(180)"/><rect class="cls-2" x="117" y="43" width="2" height="1"/><rect class="cls-2" x="118" y="38" width="1" height="5"/><rect class="cls-2" x="117" y="36" width="1" height="3"/><rect class="cls-2" x="116" y="35" width="1" height="2"/><rect class="cls-2" x="115" y="34" width="1" height="2"/><rect class="cls-2" x="109" y="34" width="6" height="1"/><rect class="cls-2" x="108" y="34" width="1" height="2"/><rect class="cls-2" x="107" y="35" width="1" height="2"/><rect class="cls-2" x="106" y="36" width="1" height="2"/><rect class="cls-2" x="105" y="37" width="1" height="7"/><rect class="cls-2" x="106" y="43" width="1" height="3"/><rect class="cls-2" x="107" y="45" width="1" height="3"/><rect class="cls-2" x="106" y="47" width="1" height="2"/><rect class="cls-2" x="102" y="48" width="4" height="1"/><rect class="cls-2" x="101" y="49" width="2" height="1"/><rect class="cls-2" x="101" y="50" width="1" height="3"/><rect class="cls-2" x="99" y="51" width="5" height="1"/><rect class="cls-2" x="98" y="52" width="1" height="7"/><rect class="cls-2" x="104" y="52" width="1" height="7"/><rect class="cls-2" x="99" y="58" width="5" height="1"/><path class="cls-2" d="m79,14v6h-30v-6h30m1-1h-32v8h32v-8h0Z"/><path class="cls-2" d="m97,30v6h-62v-6h62m1-1H34v8h64v-8h0Z"/><rect class="cls-2" x="12.5" y="22.5" width="1" height="18" transform="translate(-18.5 44.5) rotate(-90)"/><rect class="cls-2" x="12.5" y="22.5" width="1" height="16" transform="translate(-17.5 43.5) rotate(-90)"/><rect class="cls-2" x="12.5" y="22.5" width="1" height="14" transform="translate(-16.5 42.5) rotate(-90)"/><rect class="cls-2" x="12.5" y="22.5" width="1" height="12" transform="translate(-15.5 41.5) rotate(-90)"/><rect class="cls-2" x="12.5" y="21.5" width="1" height="12" transform="translate(-14.5 40.5) rotate(-90)"/><rect class="cls-2" x="12.5" y="21.5" width="1" height="10" transform="translate(-13.5 39.5) rotate(-90)"/><rect class="cls-2" x="12.5" y="20.5" width="1" height="2" transform="translate(-8.5 34.5) rotate(-90)"/><rect class="cls-2" x="12.5" y="20.5" width="1" height="4" transform="translate(-9.5 35.5) rotate(-90)"/><rect class="cls-2" x="12.5" y="20.5" width="1" height="6" transform="translate(-10.5 36.5) rotate(-90)"/><rect class="cls-2" x="12.5" y="21.5" width="1" height="6" transform="translate(-11.5 37.5) rotate(-90)"/><rect class="cls-2" x="12.5" y="21.5" width="1" height="8" transform="translate(-12.5 38.5) rotate(-90)"/><rect class="cls-2" x="12.5" y="33.5" width="1" height="18" transform="translate(55.5 29.5) rotate(90)"/><rect class="cls-2" x="12.5" y="35.5" width="1" height="16" transform="translate(56.5 30.5) rotate(90)"/><rect class="cls-2" x="12.5" y="37.5" width="1" height="14" transform="translate(57.5 31.5) rotate(90)"/><rect class="cls-2" x="12.5" y="39.5" width="1" height="12" transform="translate(58.5 32.5) rotate(90)"/><rect class="cls-2" x="12.5" y="40.5" width="1" height="12" transform="translate(59.5 33.5) rotate(90)"/><rect class="cls-2" x="12.5" y="42.5" width="1" height="10" transform="translate(60.5 34.5) rotate(90)"/><rect class="cls-2" x="12.5" y="51.5" width="1" height="2" transform="translate(65.5 39.5) rotate(90)"/><rect class="cls-2" x="12.5" y="49.5" width="1" height="4" transform="translate(64.5 38.5) rotate(90)"/><rect class="cls-2" x="12.5" y="47.5" width="1" height="6" transform="translate(63.5 37.5) rotate(90)"/><rect class="cls-2" x="12.5" y="46.5" width="1" height="6" transform="translate(62.5 36.5) rotate(90)"/><rect class="cls-2" x="12.5" y="44.5" width="1" height="8" transform="translate(61.5 35.5) rotate(90)"/><path class="cls-2" d="m92,51v6H22v-6h70m1-1H21v8h72v-8h0Z"/></g></svg>