<?xml version="1.0" encoding="UTF-8"?><svg xmlns="http://www.w3.org/2000/svg" viewBox="0 0 128 64"><defs><style>.cls-1,.cls-2{stroke-width:0px;}.cls-2{fill:#fff;}</style></defs><g id="Background"><rect class="cls-1" y="10" width="128" height="54"/></g><g id="Boxes"><rect class="cls-2" x="86" y="11" width="42" height="53"/><path class="cls-1" d="m64,2v6H2V2h62m1-1H1v8h64V1h0Z"/><path class="cls-1" d="m126,2v6h-46V2h46m1-1h-48v8h48V1h0Z"/><path class="cls-2" d="m32,15v6H10v-6h22m1-1H9v8h24v-8h0Z"/><path class="cls-2" d="m79,15v6h-30v-6h30m1-1h-32v8h32v-8h0Z"/><path class="cls-1" d="m122,15v6h-30v-6h30m1-1h-32v8h32v-8h0Z"/><rect class="cls-2" x="14" y="25" width="1" height="24"/><rect class="cls-2" x="15" y="25" width="1" height="24"/><rect class="cls-2" x="16" y="26" width="1" height="22"/><rect class="cls-2" x="17" y="27" width="1" height="20"/><rect class="cls-2" x="18" y="28" width="1" height="18"/><rect class="cls-2" x="19" y="28" width="1" height="18"/><rect class="cls-2" x="20" y="29" width="1" height="16"/><rect class="cls-2" x="21" y="30" width="1" height="14"/><rect class="cls-2" x="22" y="31" width="1" height="12"/><rect class="cls-2" x="23" y="31" width="1" height="12"/><rect class="cls-2" x="24" y="32" width="1" height="10"/><rect class="cls-2" x="29" y="36" width="1" height="2"/><rect class="cls-2" x="28" y="35" width="1" height="4"/><rect class="cls-2" x="27" y="34" width="1" height="6"/><rect class="cls-2" x="26" y="34" width="1" height="6"/><rect class="cls-2" x="25" y="33" width="1" height="8"/><path class="cls-2" d="m71,55v6h-14v-6h14m1-1h-16v8h16v-8h0Z"/><path class="cls-1" d="m114,55v6h-14v-6h14m1-1h-16v8h16v-8h0Z"/><rect class="cls-2" x="63" y="34" width="1" height="17"/><rect class="cls-2" x="64" y="35" width="2" height="1"/><rect class="cls-2" x="74" y="35" width="2" height="1"/><rect class="cls-2" x="76" y="34" width="1" height="17"/><rect class="cls-2" x="75" y="32" width="1" height="2"/><rect class="cls-2" x="64" y="32" width="1" height="2"/><rect class="cls-2" x="65" y="31" width="10" height="1"/><rect class="cls-2" x="64" y="43" width="12" height="8" transform="translate(140 94) rotate(180)"/><rect class="cls-2" x="72" y="34" width="2" height="1"/><rect class="cls-2" x="66" y="34" width="2" height="1"/><rect class="cls-2" x="68" y="35" width="4" height="1"/><rect class="cls-2" x="73" y="33" width="1" height="1"/><rect class="cls-2" x="74" y="32" width="1" height="1"/><rect class="cls-2" x="66" y="33" width="1" height="1" transform="translate(133 67) rotate(180)"/><rect class="cls-2" x="65" y="32" width="1" height="1" transform="translate(131 65) rotate(180)"/><rect class="cls-2" x="69" y="33" width="2" height="1"/><rect class="cls-2" x="70" y="28" width="1" height="5"/><rect class="cls-2" x="69" y="26" width="1" height="3"/><rect class="cls-2" x="68" y="25" width="1" height="2"/><rect class="cls-2" x="67" y="24" width="1" height="2"/><rect class="cls-2" x="61" y="24" width="6" height="1"/><rect class="cls-2" x="60" y="24" width="1" height="2"/><rect class="cls-2" x="59" y="25" width="1" height="2"/><rect class="cls-2" x="58" y="26" width="1" height="2"/><rect class="cls-2" x="57" y="27" width="1" height="7"/><rect class="cls-2" x="58" y="33" width="1" height="3"/><rect class="cls-2" x="59" y="35" width="1" height="3"/><rect class="cls-2" x="58" y="37" width="1" height="2"/><rect class="cls-2" x="54" y="38" width="4" height="1"/><rect class="cls-2" x="53" y="39" width="2" height="1"/><rect class="cls-2" x="53" y="40" width="1" height="3"/><rect class="cls-2" x="51" y="41" width="5" height="1"/><rect class="cls-2" x="50" y="42" width="1" height="7"/><rect class="cls-2" x="56" y="42" width="1" height="7"/><rect class="cls-2" x="51" y="48" width="5" height="1"/><rect class="cls-1" x="109" y="26" width="3" height="1"/><rect class="cls-1" x="111" y="27" width="3" height="1"/><rect class="cls-1" x="113" y="28" width="2" height="1"/><rect class="cls-1" x="115" y="29" width="1" height="1"/><rect class="cls-1" x="118" y="33" width="1" height="3"/><rect class="cls-1" x="117" y="31" width="1" height="3"/><rect class="cls-1" x="116" y="30" width="1" height="2"/><rect class="cls-1" x="102" y="26" width="3" height="1"/><rect class="cls-1" x="100" y="27" width="3" height="1"/><rect class="cls-1" x="99" y="28" width="2" height="1"/><rect class="cls-1" x="98" y="29" width="1" height="1"/><rect class="cls-1" x="95" y="33" width="1" height="3"/><rect class="cls-1" x="96" y="31" width="1" height="3"/><rect class="cls-1" x="97" y="30" width="1" height="2"/><rect class="cls-1" x="109" y="49" width="3" height="1"/><rect class="cls-1" x="111" y="48" width="3" height="1"/><rect class="cls-1" x="113" y="47" width="2" height="1"/><rect class="cls-1" x="115" y="46" width="1" height="1"/><rect class="cls-1" x="118" y="40" width="1" height="3"/><rect class="cls-1" x="117" y="42" width="1" height="3"/><rect class="cls-1" x="116" y="44" width="1" height="2"/><rect class="cls-1" x="102" y="49" width="3" height="1"/><rect class="cls-1" x="100" y="48" width="3" height="1"/><rect class="cls-1" x="99" y="47" width="2" height="1"/><rect class="cls-1" x="98" y="46" width="1" height="1"/><rect class="cls-1" x="95" y="40" width="1" height="3"/><rect class="cls-1" x="96" y="42" width="1" height="3"/><rect class="cls-1" x="97" y="44" width="1" height="2"/><rect class="cls-1" x="105" y="25" width="4" height="1"/><rect class="cls-1" x="105" y="50" width="4" height="1"/><rect class="cls-1" x="119" y="36" width="1" height="4"/><rect class="cls-1" x="94" y="36" width="1" height="4"/><rect class="cls-1" x="106" y="28" width="1" height="10"/><rect class="cls-1" x="107" y="37" width="1" height="1"/><rect class="cls-1" x="108" y="37" width="1" height="1"/><rect class="cls-1" x="108" y="36" width="1" height="1"/><rect class="cls-1" x="109" y="36" width="1" height="1"/><rect class="cls-1" x="109" y="35" width="1" height="1"/><rect class="cls-1" x="110" y="35" width="1" height="1"/><rect class="cls-1" x="110" y="34" width="1" height="1"/><rect class="cls-1" x="111" y="34" width="1" height="1"/><rect class="cls-1" x="111" y="33" width="1" height="1"/><rect class="cls-1" x="112" y="33" width="1" height="1"/><rect class="cls-1" x="106" y="38" width="1" height="1"/><rect class="cls-1" x="107" y="38" width="1" height="1"/></g></svg>