<?xml version="1.0" encoding="UTF-8"?><svg xmlns="http://www.w3.org/2000/svg" viewBox="0 0 128 64"><defs><style>.cls-1,.cls-2{stroke-width:0px;}.cls-2{fill:#fff;}</style></defs><g id="Background"><rect class="cls-1" y="10" width="128" height="54"/></g><g id="Boxes"><rect class="cls-2" x="32" y="52" width="64" height="12"/><path class="cls-1" d="m64,2v6H2V2h62m1-1H1v8h64V1h0Z"/><path class="cls-1" d="m126,2v6h-46V2h46m1-1h-48v8h48V1h0Z"/><path class="cls-2" d="m95,29v6h-62v-6h62m1-1H32v8h64v-8h0Z"/><path class="cls-1" d="m71,55v6h-14v-6h14m1-1h-16v8h16v-8h0Z"/><rect class="cls-2" x="103" y="35.99" width="18" height="1"/><rect class="cls-2" x="103" y="36.99" width="1" height="10"/><rect class="cls-2" x="103" y="46.99" width="1" height="2"/><rect class="cls-2" x="104" y="48.99" width="1" height="2"/><rect class="cls-2" x="105" y="49.99" width="1" height="3"/><rect class="cls-2" x="106" y="50.99" width="1" height="2"/><rect class="cls-2" x="107" y="51.99" width="10" height="1"/><rect class="cls-2" x="117" y="50.99" width="1" height="2"/><rect class="cls-2" x="118" y="49.99" width="1" height="3"/><rect class="cls-2" x="119" y="48.99" width="1" height="2"/><rect class="cls-2" x="120" y="35.99" width="1" height="13"/><rect class="cls-2" x="121" y="37.99" width="1" height="7"/><rect class="cls-2" x="122" y="37.99" width="1" height="3"/><rect class="cls-2" x="123" y="38.99" width="2" height="6"/><rect class="cls-2" x="123" y="37.99" width="1" height="1"/><rect class="cls-2" x="121" y="44.99" width="3" height="2"/><rect class="cls-2" x="108" y="33.99" width="3" height="1"/><rect class="cls-2" x="109" y="30.99" width="2" height="3"/><rect class="cls-2" x="108" y="28.99" width="1" height="3"/><rect class="cls-2" x="109" y="29.99" width="1" height="1"/><rect class="cls-2" x="107" y="26.99" width="1" height="3"/><rect class="cls-2" x="106" y="26.99" width="1" height="2"/><rect class="cls-2" x="107" y="25.99" width="2" height="1"/><rect class="cls-2" x="108" y="24.99" width="1" height="1"/><rect class="cls-2" x="111" y="31.99" width="1" height="2"/><rect class="cls-2" x="113" y="33.99" width="3" height="1"/><rect class="cls-2" x="114" y="30.99" width="2" height="3"/><rect class="cls-2" x="113" y="28.99" width="1" height="3"/><rect class="cls-2" x="114" y="29.99" width="1" height="1"/><rect class="cls-2" x="112" y="26.99" width="1" height="3"/><rect class="cls-2" x="111" y="26.99" width="1" height="2"/><rect class="cls-2" x="112" y="25.99" width="2" height="1"/><rect class="cls-2" x="113" y="24.99" width="1" height="1"/><rect class="cls-2" x="116" y="31.99" width="1" height="2"/></g></svg>