<?xml version="1.0" encoding="UTF-8"?><svg xmlns="http://www.w3.org/2000/svg" viewBox="0 0 128 64"><defs><style>.cls-1,.cls-2{stroke-width:0px;}.cls-2{fill:#fff;}</style></defs><g id="Background"><rect class="cls-1" y="10" width="128" height="54"/></g><g id="Boxes"><path class="cls-1" d="m64,2v6H2V2h62m1-1H1v8h64V1h0Z"/><path class="cls-1" d="m126,2v6h-46V2h46m1-1h-48v8h48V1h0Z"/><path class="cls-2" d="m103,34v6H25v-6h78m1-1H24v8h80v-8h0Z"/><path class="cls-2" d="m107,25v6H21v-6h86m1-1H20v8h88v-8h0Z"/><path class="cls-2" d="m103,43v6H25v-6h78m1-1H24v8h80v-8h0Z"/></g></svg>